<?xml version="1.0" encoding="utf-8"?>
<!-- Generator: Adobe Illustrator 25.0.1, SVG Export Plug-In . SVG Version: 6.00 Build 0)  -->
<svg version="1.1" id="Capa_1" xmlns="http://www.w3.org/2000/svg" xmlns:xlink="http://www.w3.org/1999/xlink" x="0px" y="0px"
	 viewBox="0 0 355.9200134 136.4400024" style="enable-background:new 0 0 355.9200134 136.4400024;" xml:space="preserve">
<style type="text/css">
	.st0{fill:#E63323;}
</style>
<g>
	<path d="M153.5128632,29.9108715V10.1828451h14.2279663v2.3280029h-11.6239624v6.0420218h10.8839722v2.3150024h-10.8839722
		v6.7149963H168.19487v2.3280029H153.5128632z M170.7698822,24.2868481l2.1799927-0.1929932
		c0.098999,0.8770142,0.3429565,1.5939941,0.7160034,2.1570129c0.3789673,0.5639954,0.9679565,1.0149841,1.7599487,1.3619995
		c0.7920532,0.3439941,1.6890259,0.5179749,2.6740112,0.5179749c0.8859863,0,1.6610107-0.1299744,2.342041-0.3909912
		c0.6709595-0.2659912,1.177002-0.6239929,1.5089722-1.0809937c0.3270264-0.4620056,0.4959717-0.9580078,0.4959717-1.5010071
		c0-0.5489807-0.1629639-1.026001-0.4839478-1.4400024c-0.3150024-0.4119873-0.8390503-0.7539978-1.5670166-1.0309753
		c-0.4719849-0.1810303-1.5090332-0.4680176-3.1119995-0.855011c-1.6019897-0.3880005-2.7319946-0.7520142-3.3729858-1.0939941
		c-0.8330078-0.4349976-1.4570313-0.9830017-1.8640137-1.631012c-0.40802-0.6489868-0.6119995-1.3729858-0.6119995-2.1809998
		c0-0.8789978,0.2440186-1.7080069,0.7509766-2.4750051c0.4960327-0.7709961,1.2300415-1.3540039,2.1849976-1.7529907
		c0.9680176-0.3959961,2.0339966-0.5960083,3.2109985-0.5960083c1.2930298,0,2.4349976,0.2090149,3.4260254,0.6280212
		c0.9899902,0.4159851,1.7479858,1.0329895,2.28302,1.8429871c0.5309448,0.8110046,0.815979,1.7340078,0.8569946,2.7600088
		l-2.2139893,0.1669922c-0.1220093-1.1040039-0.5240479-1.9450064-1.2120361-2.5069876
		c-0.6870117-0.5670166-1.7009888-0.8490295-3.0410156-0.8490295c-1.4039917,0-2.4179688,0.2590027-3.0650024,0.7730103
		c-0.6349487,0.5119934-0.9559937,1.1329947-0.9559937,1.85501c0,0.6319885,0.2280273,1.1489868,0.6820068,1.5529785
		c0.4429932,0.4060059,1.6019897,0.8230286,3.4840088,1.2460022c1.8759766,0.4300232,3.1699829,0.8010254,3.8629761,1.1190186
		c1.0200195,0.4719849,1.7709961,1.0679932,2.2550049,1.7850037c0.4840088,0.723999,0.7230225,1.5539856,0.7230225,2.4909973
		c0,0.9329834-0.2620239,1.8129883-0.7990112,2.6349792c-0.5299683,0.8240051-1.2929688,1.4630127-2.2890015,1.9250183
		c-0.9970093,0.4559937-2.1209717,0.6829834-3.367981,0.6829834c-1.5789795,0-2.90802-0.2269897-3.9680176-0.6929932
		c-1.0719604-0.4599915-1.9049683-1.1529846-2.5169678-2.0820007
		C171.1198578,26.5068493,170.793869,25.4568615,170.7698822,24.2868481 M200.28685,23.7718639l2.3129883,0.5879822
		c-0.4769897,1.9000244-1.3569946,3.3520203-2.6159668,4.3540039c-1.2579956,1-2.7960205,1.4949951-4.6140137,1.4949951
		c-1.882019,0-3.4140015-0.3819885-4.5910034-1.1479797c-1.1829834-0.7720032-2.0809937-1.8840027-2.6920166-3.3399963
		c-0.617981-1.460022-0.927002-3.0240173-0.927002-4.697998c0-1.8210144,0.3500366-3.4130249,1.0430298-4.7700195
		c0.6939697-1.3580008,1.68396-2.3890066,2.9719849-3.0939932c1.276001-0.7059937,2.6920166-1.0570068,4.2299805-1.0570068
		c1.7480469,0,3.2160034,0.4460144,4.4050293,1.3370056c1.1939697,0.8940125,2.0209961,2.144989,2.492981,3.7629995
		l-2.2719727,0.5410156c-0.4140015-1.2770081-0.9960327-2.203002-1.7709961-2.7850027
		c-0.7640381-0.5859985-1.7310181-0.875-2.9020386-0.875c-1.3460083,0-2.4589844,0.322998-3.367981,0.96698
		c-0.9030151,0.6499939-1.5319824,1.5140066-1.8930054,2.604003c-0.3670044,1.0820007-0.5540161,2.20401-0.5540161,3.3569946
		c0,1.4949951,0.2160034,2.7900085,0.6470337,3.901001c0.4370117,1.1100159,1.1069946,1.9430237,2.0219727,2.4930115
		c0.9150391,0.5509949,1.9050293,0.8240051,2.9710083,0.8240051c1.2880249,0,2.3829956-0.3760071,3.2810059-1.1220093
		C199.3668671,26.3578625,199.9668427,25.2438488,200.28685,23.7718639 M216.9098358,12.3998556h2.3129883v10.1199942
		c0,1.757019-0.197998,3.1549988-0.5999756,4.1920166c-0.3959961,1.0369873-1.1129761,1.8759766-2.1500244,2.5249939
		c-1.0369873,0.651001-2.3939819,0.9719849-4.0779419,0.9719849c-1.6380005,0-2.9780273-0.2799988-4.0150146-0.8479919
		c-1.0430298-0.5619812-1.78302-1.3819885-2.2250366-2.45401c-0.4489746-1.071991-0.6699829-2.5319824-0.6699829-4.3869934
		V12.3998556h2.3129883v10.1080008c0,1.5209961,0.1390381,2.6419983,0.4190063,3.3590088
		c0.2800293,0.7229919,0.7689819,1.2769775,1.4509888,1.6679993c0.6870117,0.3919983,1.5320435,0.5870056,2.5230103,0.5870056
		c1.7009888,0,2.9130249-0.3870239,3.6350098-1.1610107c0.7230225-0.7709961,1.0839844-2.2550049,1.0839844-4.4530029V12.3998556z
		 M223.1148529,29.9108715V12.3998556h12.632019v2.0670166h-10.3190308v5.3609915h9.6610107v2.0549927h-9.6610107v5.9620056
		h10.7210083v2.0660095H223.1148529z M239.2428436,29.9108715V12.3998556h2.3190308V27.844862h8.5999756v2.0660095H239.2428436z
		 M250.9948578,29.9108715l6.7119598-17.5110168h2.4880371l7.1489868,17.5110168h-2.6400146l-2.03302-5.302002h-7.305954
		l-1.9110107,5.302002H250.9948578z M256.0348206,22.7178478h5.9190063l-1.822998-4.8479919
		c-0.5540161-1.4710083-0.96698-2.6820059-1.2360229-3.631011c-0.2209473,1.1260071-0.5359497,2.2390127-0.9429932,3.3470144
		L256.0348206,22.7178478z M167.4958344,53.7858734l2.6050415,0.6619873
		c-0.5480347,2.1409912-1.5270386,3.7749939-2.9429932,4.9049988c-1.4210205,1.1260071-3.1520386,1.6870117-5.2090454,1.6870117
		c-2.1199951,0-3.8389893-0.434021-5.1740112-1.2969971c-1.3219604-0.8680115-2.3359985-2.1220093-3.0289917-3.7620239
		c-0.6939697-1.6429749-1.0429688-3.4089966-1.0429688-5.2909851c0-2.0549927,0.3900146-3.8450012,1.177002-5.375
		c0.7799683-1.5289917,1.8930054-2.6929932,3.3439941-3.4859924c1.4389648-0.7940063,3.0299683-1.1890259,4.7719727-1.1890259
		c1.9689941,0,3.618042,0.5,4.9639893,1.506012c1.3400269,1.0050049,2.2780151,2.4160156,2.8030396,4.2390137l-2.5640259,0.6049805
		c-0.4549561-1.4369812-1.1189575-2.4779968-1.9869995-3.1359863c-0.8619995-0.6570129-1.9519653-0.9819946-3.2739868-0.9819946
		c-1.5089722,0-2.7739868,0.3629761-3.7880249,1.0879822c-1.0189819,0.730011-1.7299805,1.70401-2.1380005,2.9299927
		c-0.4129639,1.2230225-0.6229858,2.4869995-0.6229858,3.7860107c0,1.6799927,0.2449951,3.1409912,0.7280273,4.3959961
		c0.4890137,1.2489929,1.2470093,2.184021,2.2780151,2.8059998c1.0319824,0.6210022,2.1439819,0.9290161,3.3439941,0.9290161
		c1.4569702,0,2.6919556-0.4230042,3.6999512-1.2650146C166.4528656,56.6998749,167.1348724,55.4438629,167.4958344,53.7858734
		 M172.3668671,52.1728668c0-2.9070129,0.7749634-5.1830139,2.3359985-6.8260193
		c1.5559692-1.6429749,3.565979-2.4660034,6.0249634-2.4660034c1.6140137,0,3.0710449,0.3880005,4.3640137,1.15802
		c1.2930298,0.7749939,2.2780151,1.8500061,2.960022,3.2330017c0.6809692,1.3800049,1.0139771,2.9490051,1.0139771,4.697998
		c0,1.7779846-0.3499756,3.3680115-1.0670166,4.7659912c-0.7159424,1.4020081-1.7299805,2.4620056-3.0409546,3.1849976
		c-1.3110352,0.7220154-2.7210083,1.0800171-4.2360229,1.0800171c-1.6489868,0-3.1170044-0.3950195-4.4099731-1.1950073
		c-1.3000488-0.7929993-2.2789917-1.8829956-2.9429932-3.2609863
		C172.6988373,55.1708527,172.3668671,53.7108612,172.3668671,52.1728668 M174.7498627,52.2098541
		c0,2.1130066,0.5650024,3.7709961,1.6959839,4.9869995c1.1359863,1.2140198,2.552002,1.8220215,4.2639771,1.8220215
		c1.743042,0,3.1700439-0.6110229,4.2950439-1.8370056c1.117981-1.2270203,1.6829834-2.9700012,1.6829834-5.2250061
		c0-1.4219971-0.2390137-2.6650085-0.7219849-3.730011c-0.4780273-1.0639954-1.1829834-1.8880005-2.1030273-2.4750061
		c-0.9329834-0.5829773-1.9639893-0.8759766-3.117981-0.8759766c-1.6430054,0-3.0469971,0.5619812-4.2299805,1.690979
		C175.3388519,47.6928558,174.7498627,49.5768585,174.7498627,52.2098541 M191.9498749,60.7038727V43.1918488h2.3129883V58.635849
		h8.6049805v2.0680237H191.9498749z M204.918869,52.1728668c0-2.9070129,0.7749634-5.1830139,2.3309937-6.8260193
		c1.5620117-1.6429749,3.5719604-2.4660034,6.0299683-2.4660034c1.6140137,0,3.0650024,0.3880005,4.3580322,1.15802
		c1.2940063,0.7749939,2.2839966,1.8500061,2.9660034,3.2330017c0.6759644,1.3800049,1.0139771,2.9490051,1.0139771,4.697998
		c0,1.7779846-0.3560181,3.3680115-1.065979,4.7659912c-0.7230225,1.4020081-1.7310181,2.4620056-3.0419922,3.1849976
		c-1.3110352,0.7220154-2.7270508,1.0800171-4.2410278,1.0800171c-1.6489868,0-3.1119995-0.3950195-4.4110107-1.1950073
		c-1.2940063-0.7929993-2.2779541-1.8829956-2.9419556-3.2609863
		C205.2508392,55.1708527,204.918869,53.7108612,204.918869,52.1728668 M207.3018646,52.2098541
		c0,2.1130066,0.5599976,3.7709961,1.6900024,4.9869995c1.1359863,1.2140198,2.5579834,1.8220215,4.2649536,1.8220215
		c1.7420044,0,3.1690063-0.6110229,4.2940063-1.8370056c1.1190186-1.2270203,1.6900024-2.9700012,1.6900024-5.2250061
		c0-1.4219971-0.2449951-2.6650085-0.7290039-3.730011c-0.4769897-1.0639954-1.1819458-1.8880005-2.1029663-2.4750061
		c-0.9260254-0.5829773-1.9630127-0.8759766-3.1170044-0.8759766c-1.6370239,0-3.0469971,0.5619812-4.223999,1.690979
		C207.8908539,47.6928558,207.3018646,49.5768585,207.3018646,52.2098541 M224.524826,60.7038727V43.1918488h3.4850464
		l4.1300049,12.3990173c0.3789673,1.1520081,0.664978,2.0180054,0.8339844,2.59198
		c0.197998-0.6349792,0.5059814-1.5739746,0.9320068-2.8079834l4.177002-12.1830139h3.1119995v17.5120239h-2.2319946V46.043869
		l-5.0750122,14.6600037h-2.0800171l-5.0570068-14.9070129v14.9070129H224.524826z M244.8248749,60.7038727V43.1918488h6.5539551
		c1.335022,0,2.4070435,0.1809998,3.2109985,0.5299988c0.8099976,0.355011,1.4390106,0.901001,1.8990326,1.6380005
		c0.4489746,0.7340088,0.6819458,1.506012,0.6819458,2.3120117c0,0.7460022-0.197998,1.4519958-0.6119995,2.1109924
		c-0.4019775,0.6629944-1.0139618,1.1940002-1.8299408,1.6029968c1.0549927,0.3110046,1.864975,0.8420105,2.4359589,1.5859985
		c0.5650024,0.7510071,0.8510132,1.6350098,0.8510132,2.6560059c0,0.8200073-0.1749878,1.5830078-0.5189819,2.2870178
		c-0.3439941,0.7039795-0.7750244,1.2479858-1.2820435,1.6309814c-0.5069427,0.3840027-1.1419525,0.6670227-1.9109344,0.8630066
		c-0.7630005,0.196991-1.7010498,0.2950134-2.8200073,0.2950134H244.8248749z M247.1378632,50.5488739h3.7810059
		c1.0199585,0,1.7539673-0.0670166,2.2030029-0.2010193c0.5879517-0.1749878,1.0310059-0.4660034,1.3280029-0.8729858
		c0.2909546-0.40802,0.447998-0.9160156,0.447998-1.5299988c0-0.5780029-0.1390381-1.0920105-0.4190063-1.53302
		c-0.2800293-0.4440002-0.6820068-0.7449951-1.1879883-0.9089966c-0.519043-0.1629944-1.4050293-0.242981-2.6630249-0.242981
		h-3.4899902V50.5488739z M247.1378632,58.635849h4.3460083c0.7519531,0,1.276001-0.0289917,1.5789795-0.0820007
		c0.5299683-0.0959778,0.9730225-0.2569885,1.3289795-0.4799805c0.3610229-0.2220154,0.6520386-0.5469971,0.8850098-0.9720154
		c0.2269897-0.427002,0.3500366-0.9169922,0.3500366-1.473999c0-0.6549988-0.1690063-1.2200012-0.507019-1.7049866
		c-0.3320313-0.4819946-0.7919922-0.8210144-1.3870239-1.0150146c-0.5939941-0.190979-1.4450073-0.2890015-2.5570068-0.2890015
		h-4.0379639V58.635849z M261.592804,43.1918488h2.3070068v17.5120239h-2.3070068V43.1918488z M266.0558167,60.7038727
		l6.7120361-17.5120239h2.4879761l7.1489868,17.5120239h-2.6329956l-2.039978-5.3059998h-7.2999878l-1.9169922,5.3059998
		H266.0558167z M271.0958557,53.5098724h5.9249878l-1.822998-4.8470154
		c-0.5540161-1.4710083-0.967041-2.6829834-1.2410278-3.6340027c-0.2219849,1.1260071-0.5360107,2.2399902-0.9379883,3.348999
		L271.0958557,53.5098724z M284.2288513,60.7038727V43.1918488h2.3709717l9.1710205,13.7480164V43.1918488h2.2199707v17.5120239
		h-2.3709717l-9.177002-13.7620239v13.7620239H284.2288513z M299.9478455,60.7038727l6.7130127-17.5120239h2.4869995
		l7.1549683,17.5120239h-2.6329956l-2.0449829-5.3059998h-7.3010254l-1.9169922,5.3059998H299.9478455z M304.9888611,53.5098724
		h5.9309692l-1.8300171-4.8470154c-0.5529785-1.4710083-0.96698-2.6829834-1.2349854-3.6340027
		c-0.2210083,1.1260071-0.5360107,2.2399902-0.9439697,3.348999L304.9888611,53.5098724z M153.220871,91.4948578V73.9828644
		h6.0130005c1.3579712,0,2.3949585,0.0839844,3.1109619,0.2510071c1.0029907,0.2290039,1.8530273,0.6499939,2.5640259,1.2509766
		c0.914978,0.7850037,1.6079712,1.7799988,2.0629883,2.9940186c0.460022,1.2160034,0.6870117,2.6019897,0.6870117,4.1629944
		c0,1.3299866-0.151001,2.5079956-0.4660034,3.5360107c-0.309021,1.026001-0.7050171,1.8789978-1.1940308,2.5529785
		c-0.4839478,0.6719971-1.0139771,1.2010193-1.5909424,1.5859985c-0.5710449,0.3850098-1.2700195,0.6790161-2.0800171,0.8800049
		c-0.81604,0.1990051-1.7540283,0.2980042-2.802002,0.2980042H153.220871z M155.5288544,89.4258575h3.7290039
		c1.1530151,0,2.0620117-0.1049805,2.7149658-0.3200073c0.6520386-0.2179871,1.1710205-0.519989,1.5610352-0.9109802
		c0.5540161-0.5469971,0.9730225-1.2870178,1.2819824-2.2130127c0.309021-0.9289856,0.460022-2.0499878,0.460022-3.3769836
		c0-1.8300171-0.2969971-3.2369995-0.8970337-4.2200012c-0.5999756-0.9860229-1.3339844-1.6419983-2.190979-1.9779968
		c-0.6170044-0.2390137-1.6199951-0.3580017-2.9890137-0.3580017h-3.6699829V89.4258575z M170.8868256,91.4948578V73.9828644
		h12.632019v2.0660095h-10.3189697v5.3619995h9.6599731v2.0559998h-9.6599731v5.9589844h10.7210083v2.0690002H170.8868256z
		 M195.4338837,71.7658539h2.6040039v19.730011h-2.6040039V71.7658539z M202.3668671,91.4948578V73.9828644h2.3659668
		l9.1760254,13.7470093V73.9828644h2.2149658v17.5119934h-2.3659668l-9.177002-13.7619934v13.7619934H202.3668671z
		 M228.1838226,84.6248627v-2.052002l7.394043-0.0130005v6.4970093c-1.1300049,0.9079895-2.3010254,1.5879822-3.5130005,2.0499878
		c-1.2059937,0.4570007-2.4470215,0.6849976-3.7180176,0.6849976c-1.7119751,0-3.2739868-0.3649902-4.6719971-1.1059875
		c-1.4050293-0.7319946-2.4650269-1.8009949-3.1760254-3.1910095c-0.71698-1.3959961-1.0780029-2.9509888-1.0780029-4.6719971
		c0-1.7059937,0.3610229-3.2950134,1.0720215-4.7730103c0.7050171-1.4779968,1.7310181-2.5759888,3.0650024-3.2929993
		c1.3339844-0.7139893,2.8729858-1.071991,4.6149902-1.071991c1.2579956,0,2.4000244,0.2030029,3.4199829,0.6130066
		c1.019043,0.4109802,1.8230591,0.9799805,2.4000244,1.7129822c0.5830078,0.7350159,1.026001,1.6900024,1.3289795,2.8690186
		l-2.09198,0.5740051c-0.2559814-0.8940125-0.5880127-1.5940247-0.9730225-2.1029968
		c-0.3899536-0.5100098-0.9499512-0.9190063-1.6719971-1.2240295c-0.71698-0.3069763-1.5209961-0.4619751-2.401001-0.4619751
		c-1.0599976,0-1.9749756,0.1640015-2.7439575,0.4849854c-0.769043,0.3240051-1.3870239,0.7480164-1.8640137,1.2740173
		c-0.4719849,0.5249939-0.8389893,1.098999-1.1019897,1.7330017c-0.4429932,1.0789795-0.6699829,2.2539978-0.6699829,3.5229797
		c0,1.5610046,0.2739868,2.8640137,0.8039551,3.9179993c0.5419922,1.0500183,1.322998,1.8300171,2.348999,2.3399963
		c1.019043,0.5100098,2.1090088,0.7669983,3.2620239,0.7669983c1.0020142,0,1.9749756-0.196991,2.9309692-0.5849915
		c0.9550171-0.3819885,1.6719971-0.7940063,2.1670532-1.2349854v-3.2600098H228.1838226z M239.0388641,91.4948578V73.9828644
		h12.6199951v2.0660095H241.345871v5.3619995h9.6609497v2.0559998h-9.6609497v5.9589844h10.7269897v2.0690002H239.0388641z
		 M255.2418671,91.4948578V73.9828644h2.3659515l9.1760254,13.7470093V73.9828644h2.2149658v17.5119934h-2.3659668
		l-9.177002-13.7619934v13.7619934H255.2418671z M273.2808533,73.9828644h2.3070068v17.5130005h-2.3070068V73.9828644z
		 M279.7128601,91.4948578V73.9828644h12.6259766v2.0660095h-10.3190308v5.3619995h9.6610107v2.0559998h-9.6610107v5.9589844
		h10.7210083v2.0690002H279.7128601z M295.974823,91.4948578V73.9828644h7.742981
		c1.5560303,0,2.7390137,0.1569824,3.5490112,0.4710083c0.809021,0.3150024,1.4559937,0.868988,1.9460449,1.6640015
		c0.4829712,0.7999878,0.7219849,1.6789856,0.7219849,2.6439819c0,1.2420044-0.3959961,2.2870178-1.2059937,3.1380005
		c-0.7980347,0.8529968-2.0390015,1.3950195-3.7109985,1.6279907c0.605957,0.2910156,1.0719604,0.5830078,1.3859863,0.8720093
		c0.6820068,0.6199951,1.3170166,1.3980103,1.9229736,2.3269958l3.0410156,4.7680054h-2.9069824l-2.3129883-3.644989
		c-0.6760254-1.0490112-1.2350464-1.8560181-1.6719971-2.4100037c-0.4310303-0.5580139-0.8280029-0.9509888-1.1710205-1.17099
		c-0.3439941-0.2230225-0.6940308-0.3780212-1.0549927-0.4700012c-0.2620239-0.0510254-0.6879883-0.07901-1.2880249-0.07901
		h-2.6799927v7.7749939H295.974823z M298.2818298,81.7118683h4.9700317c1.0549927,0,1.881958-0.1080017,2.4769897-0.32901
		c0.5999756-0.2189941,1.0479736-0.5709839,1.3569946-1.053009c0.30896-0.4809875,0.4660034-1.0019836,0.4660034-1.5679932
		c0-0.8299866-0.2969971-1.5090027-0.8970337-2.0440063c-0.5999756-0.5359802-1.5499878-0.7989807-2.8429565-0.7989807h-5.5300293
		V81.7118683z M313.9548035,73.9828644h2.3070068v17.5130005h-2.3070068V73.9828644z M313.3548279,72.9058685l1.585022-3.3460083
		h2.8079834l-2.6160278,3.3460083H313.3548279z M318.4178162,91.4948578l6.7120361-17.5119934h2.4879761l7.1489868,17.5119934
		h-2.6389771l-2.0339966-5.3049927h-7.3060303l-1.9109497,5.3049927H318.4178162z M323.4518127,84.3008575h5.9260254
		l-1.8179932-4.8469849c-0.559021-1.4730225-0.9730225-2.6830139-1.2410278-3.6340027
		c-0.2210083,1.125-0.5360107,2.2409973-0.9439697,3.348999L323.4518127,84.3008575z M152.1258392,116.6858673l2.3540039-0.322998
		c0.0579834,1.5069885,0.3430176,2.5409851,0.8389893,3.0979919c0.507019,0.5540161,1.2000122,0.8299866,2.0800171,0.8299866
		c0.65802,0,1.223999-0.1469727,1.6900024-0.4489746c0.4769897-0.2980042,0.8040161-0.7070007,0.9840088-1.2230225
		c0.1809692-0.5179749,0.2680054-1.3389893,0.2680054-2.4689941v-13.5950012h2.6049805v13.4460144
		c0,1.6479797-0.197998,2.9309998-0.5949707,3.8379822c-0.4020386,0.9020081-1.0310059,1.5920105-1.8930054,2.0690002
		c-0.8630371,0.4750061-1.8760376,0.7130127-3.0419922,0.7130127c-1.7300415,0-3.0469971-0.4949951-3.9680176-1.493988
		C152.5278778,120.1308746,152.0908661,118.6498566,152.1258392,116.6858673 M178.4208832,104.7718658h2.3129883v10.1199951
		c0,1.7579956-0.1929932,3.1560059-0.5950317,4.1920166c-0.3959961,1.0369873-1.1119995,1.875-2.1499634,2.5239868
		c-1.0370483,0.6539917-2.394043,0.9750061-4.0780029,0.9750061c-1.6370239,0-2.9769897-0.2820129-4.0140381-0.8470154
		c-1.0429688-0.5629883-1.782959-1.3829956-2.2259521-2.4549866c-0.4490356-1.071991-0.6700439-2.5320129-0.6700439-4.3890076
		v-10.1199951h2.3070068v10.1080017c0,1.5220032,0.1459961,2.6419983,0.4249878,3.3609924
		c0.2800293,0.7200012,0.769043,1.276001,1.4510498,1.6679993c0.6879883,0.3919983,1.5269775,0.5870056,2.5229492,0.5870056
		c1.7010498,0,2.9130249-0.3880005,3.6360474-1.1629944c0.7219849-0.7709961,1.0780029-2.2550049,1.0780029-4.4530029V104.7718658z
		 M184.4858246,122.2848663v-17.5130005h2.3130493v15.4459839h8.5999756v2.0670166H184.4858246z M198.5448456,104.7718658h2.3129883
		v17.5130005h-2.3129883V104.7718658z M204.2318573,113.7558746c0-2.90802,0.7750244-5.1820068,2.3300171-6.8260193
		c1.5619507-1.6439819,3.5719604-2.46698,6.0309448-2.46698c1.6140137,0,3.0700073,0.3880005,4.3640137,1.1579895
		c1.2869873,0.7739868,2.2780151,1.8519897,2.9540405,3.2319946c0.6819458,1.3800049,1.0189819,2.9490051,1.0189819,4.7000122
		c0,1.7769775-0.3549805,3.3659973-1.065979,4.7649841c-0.717041,1.401001-1.7300415,2.4630127-3.0410156,3.184021
		c-1.3110352,0.7219849-2.7210083,1.0809937-4.2420044,1.0809937c-1.6430054,0-3.1170044-0.3959961-4.4110107-1.1929932
		c-1.2929688-0.7980042-2.2719727-1.8860168-2.9359741-3.2630005
		C204.5638275,116.7528534,204.2318573,115.2918549,204.2318573,113.7558746 M206.6148529,113.7908478
		c0,2.1130066,0.5650024,3.7720032,1.6950073,4.9880066c1.1309814,1.2160034,2.552002,1.8220215,4.2589722,1.8220215
		c1.743042,0,3.1700439-0.6119995,4.2950439-1.8390198c1.1239624-1.2250061,1.6889648-2.9689941,1.6889648-5.2219849
		c0-1.4230042-0.2440186-2.6670227-0.7219849-3.730011c-0.4840088-1.0650024-1.1829834-1.8899841-2.1090088-2.4769897
		c-0.927002-0.5830078-1.9639893-0.875-3.117981-0.875c-1.6370239,0-3.0410156,0.5619812-4.223999,1.690979
		C207.2028656,109.2738495,206.6148529,111.1578522,206.6148529,113.7908478 M240.9908295,114.5458527v-2.3099976
		l8.3370361-0.0149841v7.3169861c-1.276001,1.0249939-2.592041,1.7919922-3.9559937,2.3099976
		c-1.3630371,0.5160217-2.7610474,0.7730103-4.1890259,0.7730103c-1.934021,0-3.6939697-0.4129944-5.2669678-1.2460022
		c-1.585022-0.8250122-2.7730103-2.0299988-3.5830078-3.5950012c-0.7990112-1.571991-1.2059937-3.3269958-1.2059937-5.2640076
		c0-1.92099,0.4069824-3.7139893,1.2059937-5.3759766c0.7979736-1.6650085,1.9519653-2.9040222,3.4549561-3.7110291
		c1.5030518-0.8049927,3.2330322-1.2099915,5.19104-1.2099915c1.4219971,0,2.7089844,0.2310181,3.8629761,0.6960144
		c1.1480103,0.4570007,2.0510254,1.1009827,2.7039795,1.9279785c0.6520386,0.8280029,1.1470337,1.9030151,1.4910278,3.230011
		l-2.3540039,0.6470032c-0.2969971-1.006012-0.65802-1.7950134-1.1010132-2.3699951
		c-0.4370117-0.5740051-1.065979-1.0339966-1.8759766-1.3770142c-0.815979-0.3450012-1.7189941-0.5189819-2.7150269-0.5189819
		c-1.1829834,0-2.2139893,0.1829834-3.0819702,0.5449829c-0.867981,0.3640137-1.5679932,0.8430176-2.1040039,1.434021
		c-0.5300293,0.5929871-0.9440308,1.2419739-1.2410278,1.9529724c-0.5009766,1.2160034-0.7509766,2.5400085-0.7509766,3.9680176
		c0,1.7600098,0.3029785,3.2290039,0.9089966,4.4150085c0.6060181,1.1859741,1.4790039,2.0619812,2.6389771,2.6359863
		c1.1540527,0.5740051,2.3770142,0.8649902,3.6710205,0.8649902c1.1300049,0,2.2310181-0.2209778,3.3029785-0.6569824
		c1.0780029-0.4330139,1.8880005-0.8959961,2.44104-1.3930054v-3.6740112H240.9908295z M251.0118256,122.2848663
		l6.7059784-17.5130005h2.4940186l7.1489868,17.5130005h-2.6329956l-2.039978-5.3040161h-7.306015l-1.9169922,5.3040161H251.0118256
		z M256.0458069,115.0918732h5.9320068l-1.8299561-4.8470154c-0.5530396-1.4719849-0.967041-2.6829834-1.2350464-3.6319885
		c-0.2209473,1.1239929-0.5359497,2.2389832-0.9379883,3.3469849L256.0458069,115.0918732z M269.2428284,122.2848663v-17.5130005
		h7.7440186c1.5549927,0,2.7379761,0.1610107,3.5479736,0.473999c0.8040161,0.3139954,1.4559937,0.8699951,1.9459839,1.6629944
		c0.4840088,0.8009949,0.7220459,1.6799927,0.7220459,2.6440125c0,1.2420044-0.4020386,2.2869873-1.2059937,3.1380005
		c-0.7980347,0.8519897-2.0390015,1.3930054-3.717041,1.6289978c0.618042,0.2919922,1.0780029,0.5809937,1.3980103,0.8710022
		c0.6699829,0.6199951,1.3110352,1.3979797,1.9169922,2.3269958l3.0419922,4.7669983h-2.9140015l-2.3070068-3.644989
		c-0.6759644-1.0470276-1.2289429-1.855011-1.6719971-2.4090271c-0.4309692-0.5589905-0.8209839-0.9499817-1.164978-1.1689758
		c-0.3499756-0.2250061-0.6989746-0.3789978-1.0609741-0.4710083c-0.2620239-0.0540161-0.6929932-0.0820007-1.2870483-0.0820007
		h-2.6799927v7.776001H269.2428284z M271.5508118,112.5038605h4.9689941c1.0550537,0,1.882019-0.1109924,2.4770508-0.3299866
		c0.5999756-0.2220154,1.0479736-0.5710144,1.3569946-1.053009c0.30896-0.4819946,0.4660034-1.0029907,0.4660034-1.5679932
		c0-0.8300171-0.2969971-1.5090027-0.8970337-2.0450134c-0.5999756-0.5329895-1.5499878-0.7969971-2.8430176-0.7969971h-5.5289917
		V112.5038605z M284.9048157,122.2848663l6.7120361-17.5130005h2.4879761l7.1489868,17.5130005h-2.6339722l-2.0390015-5.3040161
		h-7.3010254l-1.9159546,5.3040161H284.9048157z M289.9448547,115.0918732h5.9249878l-1.8290405-4.8470154
		c-0.5479736-1.4719849-0.9679565-2.6829834-1.2359619-3.6319885c-0.2210083,1.1239929-0.5360107,2.2389832-0.9379883,3.3469849
		L289.9448547,115.0918732z M306.2818298,122.2848663l-6.7650146-17.5130005h2.5l4.5390015,12.7210083
		c0.3670044,1.0209961,0.6700439,1.9790039,0.9140015,2.8669739c0.2739868-0.9519958,0.5889893-1.9069824,0.9440308-2.8669739
		l4.7199707-12.7210083h2.3590088l-6.8400269,17.5130005H306.2818298z M317.9638367,104.7718658h2.3070068v17.5130005h-2.3070068
		V104.7718658z M328.7898254,122.2848663v-15.4440002h-5.757019v-2.0690002h13.8430176v2.0690002h-5.7730103v15.4440002H328.7898254
		z M338.1058044,113.7558746c0-2.90802,0.7750244-5.1820068,2.3359985-6.8260193
		c1.5560303-1.6439819,3.56604-2.46698,6.0310059-2.46698c1.6080322,0,3.0640259,0.3880005,4.3580322,1.1579895
		c1.2929688,0.7739868,2.2780151,1.8519897,2.9599609,3.2319946c0.6810303,1.3800049,1.019043,2.9490051,1.019043,4.7000122
		c0,1.7769775-0.3610229,3.3659973-1.0720215,4.7649841c-0.7160034,1.401001-1.7299805,2.4630127-3.0410156,3.184021
		c-1.3109741,0.7219849-2.7209473,1.0809937-4.2359619,1.0809937c-1.6489868,0-3.1170044-0.3959961-4.4050293-1.1929932
		c-1.2990112-0.7980042-2.2839966-1.8860168-2.947998-3.2630005
		C338.4378357,116.7528534,338.1058044,115.2918549,338.1058044,113.7558746 M340.4888611,113.7908478
		c0,2.1130066,0.5649414,3.7720032,1.6949463,4.9880066c1.1370239,1.2160034,2.552002,1.8220215,4.2650146,1.8220215
		c1.7369995,0,3.1699829-0.6119995,4.2940063-1.8390198c1.1190186-1.2250061,1.684021-2.9689941,1.684021-5.2219849
		c0-1.4230042-0.2440186-2.6670227-0.7220459-3.730011c-0.4779663-1.0650024-1.1829834-1.8899841-2.1089478-2.4769897
		c-0.927002-0.5830078-1.9580078-0.875-3.1170044-0.875c-1.632019,0-3.0419922,0.5619812-4.2189941,1.690979
		C341.0768127,109.2738495,340.4888611,111.1578522,340.4888611,113.7908478"/>
	<path class="st0" d="M59.9048538,130.2284393c-0.1570129,0-0.309021-0.0579834-0.4250183-0.1779785
		c-0.2449951-0.2380066-0.2449951-0.6239929-0.006012-0.8650208l69.0320206-69.552002
		c0.2379761-0.2389832,0.6229858-0.2409973,0.8619995-0.0029907c0.2449951,0.2380066,0.2449951,0.6260071,0.0059814,0.8649902
		L60.341835,130.0504608C60.2198257,130.1704559,60.0618362,130.2284393,59.9048538,130.2284393"/>
	<path d="M59.9048538,130.2300568c-0.3320007,0-0.6060181-0.2729797-0.6060181-0.6119995
		c0-0.3369751,0.2740173-0.6119995,0.6060181-0.6119995H70.992836l57.3380203-80.7160034V36.5300751
		c0-0.3370056,0.2739868-0.6130066,0.6119995-0.6130066c0.3369751,0,0.605957,0.276001,0.605957,0.6130066v11.9559937
		c0,0.1279907-0.0349731,0.2520142-0.1170044,0.3559875l-57.622963,81.1300049
		c-0.1170044,0.1630249-0.303009,0.256012-0.5020142,0.256012L59.9048538,130.2300568z"/>
	<path class="st0" d="M105.9571609,130.2300568c-0.0410156,0-0.0820007-0.0049744-0.1220093-0.0099792
		c-0.3269958-0.0679932-0.5419922-0.3900146-0.4779968-0.7220154l22.9499588-116.0650024
		c0.0700073-0.3329773,0.3900146-0.5489807,0.717041-0.4819946c0.3319702,0.0650024,0.5479736,0.3880005,0.4840088,0.7180176
		l-22.9570084,116.0690002C106.4991531,130.0280609,106.2421341,130.2300568,105.9571609,130.2300568"/>
	<path class="st0" d="M83.1814651,129.845932c-0.0930176,0-0.1860046-0.0209961-0.2680054-0.0629883
		c-0.309021-0.1499939-0.4309998-0.5169983-0.2799988-0.821991l45.760994-92.7019958
		c0.1459961-0.3040161,0.5130005-0.427002,0.815979-0.2780151c0.3030396,0.1499939,0.4249878,0.5190125,0.2739868,0.8190002
		l-45.754982,92.7059937C83.6244583,129.7199554,83.4024429,129.845932,83.1814651,129.845932"/>
	<path class="st0" d="M36.6749649,130.2284393c-0.2270203,0-0.4370117-0.1229858-0.5480042-0.3359985
		c-0.151001-0.3019714-0.0230103-0.6699829,0.2739868-0.821991l92.2679825-46.5270081
		c0.2969971-0.1529846,0.6640015-0.0299988,0.8150024,0.2720032c0.1520386,0.302002,0.0300293,0.6690063-0.2680054,0.8220215
		L36.9489517,130.164444C36.8619461,130.2094574,36.76194,130.2284393,36.6749649,130.2284393"/>
	<path class="st0" d="M13.6604395,130.0502472c-0.2860107,0-0.5360107-0.2019958-0.5940247-0.4919739
		c-0.0639954-0.3320007,0.1450195-0.6540222,0.4779968-0.7200012l115.2760086-23.0130005
		c0.3319702-0.0670166,0.6519775,0.1519775,0.7160034,0.4819946c0.0700073,0.3320007-0.1459961,0.6539917-0.4780273,0.7200012
		L13.7824183,130.0382538C13.7424097,130.0472565,13.7014246,130.0502472,13.6604395,130.0502472"/>
	<path d="M25.4881668,130.2284393H13.6661463c-0.3259888,0-0.5939941-0.2559814-0.6119995-0.5799866
		c-0.0169983-0.3250122,0.2220154-0.6069946,0.5480042-0.6390076l16.7690125-1.6860046l97.9599991-33.0679932V83.0904388
		c0-0.3379822,0.2730103-0.6109924,0.6109619-0.6109924c0.3380127,0,0.6060181,0.2730103,0.6060181,0.6109924v11.605011
		c0,0.2610168-0.1690063,0.4960022-0.4140015,0.5800171l-93.3159866,31.5019836l92.5130081-9.2929993v-11.0559998
		c0-0.3389893,0.2730103-0.6130066,0.6109619-0.6130066c0.3380127,0,0.6060181,0.2740173,0.6060181,0.6130066v11.6090088
		c0,0.3139954-0.2390137,0.5769958-0.5479736,0.6090088l-98.373024,9.8819885l-4.946991,1.6690063
		C25.6161575,130.2194672,25.5521622,130.2284393,25.4881668,130.2284393"/>
	<path d="M48.1470413,130.2284393H36.6750259c-0.3380127,0-0.6119995-0.2729797-0.6119995-0.6099854
		c0-0.3389893,0.2739868-0.6119995,0.6119995-0.6119995h11.2739868l80.3820267-57.8470154V60.0644379
		c0-0.3389893,0.2739868-0.6139832,0.6109619-0.6139832c0.3380127,0,0.6060181,0.2749939,0.6060181,0.6139832V71.473465
		c0,0.1959839-0.0930176,0.3829956-0.25,0.4969788l-80.7959976,58.1440125
		C48.3980179,130.1894684,48.275032,130.2284393,48.1470413,130.2284393"/>
	<path d="M135.3807831,118.7709503c-0.3380127,0-0.6120605-0.2749939-0.6120605-0.6119995V1.5109699
		c0-0.3390198,0.2740479-0.6140137,0.6120605-0.6140137c0.3379517,0,0.6119995,0.2749939,0.6119995,0.6140137v116.6479797
		C135.9927826,118.4959564,135.7187347,118.7709503,135.3807831,118.7709503"/>
	<path d="M141.7081757,135.543045H1.7221766c-0.3380127,0-0.61203-0.2749939-0.61203-0.6129761
		c0-0.3380127,0.2740173-0.6110229,0.61203-0.6110229h139.9859924c0.3379517,0,0.6119995,0.2730103,0.6119995,0.6110229
		C142.3201752,135.2680511,142.0461273,135.543045,141.7081757,135.543045"/>
	<path d="M83.1582413,130.2300568c-0.3380127,0-0.61203-0.2729797-0.61203-0.6119995
		c0-0.3369751,0.2740173-0.6119995,0.61203-0.6119995h11.0699768l32.4419861-98.6959839l1.6600418-16.9930115
		c0.0349731-0.3269958,0.30896-0.5589905,0.6409912-0.553009c0.3259888,0.0160217,0.5769653,0.2840271,0.5769653,0.61203v11.9839773
		c0,0.0679932-0.0119629,0.132019-0.0289917,0.1929932l-1.643013,5.0110168l-9.6950073,99.1140137
		c-0.0289917,0.3119812-0.2919922,0.5499878-0.605957,0.5499878H105.957222c-0.3379822,0-0.6119995-0.2730103-0.6119995-0.6100159
		c0-0.3389893,0.2740173-0.6119995,0.6119995-0.6119995h11.0639954l9.1010132-93.1269836l-30.8739929,93.9289856
		c-0.0820007,0.2510071-0.3150024,0.4200134-0.5770264,0.4200134L83.1582413,130.2300568z"/>
</g>
</svg>
